<mxfile modified="2024-04-10T12:51:18.324Z" host="app.diagrams.net" agent="Mozilla/5.0 (Windows NT 10.0; Win64; x64) AppleWebKit/537.36 (KHTML, like Gecko) Chrome/123.0.0.0 Safari/537.36" etag="J_tSGH_VrpHTdtzCsqcU" version="24.2.3" type="github">
  <diagram id="Ht1M8jgEwFfnCIfOTk4-" name="Page-1">
    <mxGraphModel dx="1687" dy="1695" grid="1" gridSize="10" guides="1" tooltips="1" connect="1" arrows="1" fold="1" page="1" pageScale="1" pageWidth="1169" pageHeight="827" math="0" shadow="0">
      <root>
        <mxCell id="0" />
        <mxCell id="1" parent="0" />
        <mxCell id="jVZE8pouHpdLrU7AATkR-2" value="" style="rounded=0;whiteSpace=wrap;html=1;" vertex="1" parent="1">
          <mxGeometry x="40" y="-800" width="1080" height="650" as="geometry" />
        </mxCell>
        <mxCell id="jVZE8pouHpdLrU7AATkR-4" value="" style="rounded=0;whiteSpace=wrap;html=1;fillColor=#e1d5e7;strokeColor=#9673a6;" vertex="1" parent="1">
          <mxGeometry x="70" y="-775" width="470" height="595" as="geometry" />
        </mxCell>
        <mxCell id="jVZE8pouHpdLrU7AATkR-6" value="" style="rounded=0;whiteSpace=wrap;html=1;fillColor=#fff2cc;strokeColor=#d6b656;" vertex="1" parent="1">
          <mxGeometry x="620" y="-775" width="470" height="595" as="geometry" />
        </mxCell>
        <mxCell id="jVZE8pouHpdLrU7AATkR-7" value="" style="rounded=0;whiteSpace=wrap;html=1;" vertex="1" parent="1">
          <mxGeometry x="100" y="-660" width="410" height="110" as="geometry" />
        </mxCell>
        <mxCell id="jVZE8pouHpdLrU7AATkR-8" value="" style="rounded=0;whiteSpace=wrap;html=1;fillColor=#f8cecc;strokeColor=#b85450;" vertex="1" parent="1">
          <mxGeometry x="100" y="-380" width="410" height="110" as="geometry" />
        </mxCell>
        <mxCell id="jVZE8pouHpdLrU7AATkR-9" value="" style="rounded=0;whiteSpace=wrap;html=1;" vertex="1" parent="1">
          <mxGeometry x="650" y="-660" width="410" height="110" as="geometry" />
        </mxCell>
        <mxCell id="jVZE8pouHpdLrU7AATkR-10" value="" style="rounded=0;whiteSpace=wrap;html=1;fillColor=#f8cecc;strokeColor=#b85450;" vertex="1" parent="1">
          <mxGeometry x="650" y="-380" width="410" height="110" as="geometry" />
        </mxCell>
        <mxCell id="jVZE8pouHpdLrU7AATkR-11" value="&lt;font style=&quot;font-size: 25px;&quot;&gt;us-east-1a&lt;/font&gt;" style="text;html=1;align=center;verticalAlign=middle;whiteSpace=wrap;rounded=0;" vertex="1" parent="1">
          <mxGeometry x="360" y="-760" width="150" height="60" as="geometry" />
        </mxCell>
        <mxCell id="jVZE8pouHpdLrU7AATkR-12" value="&lt;font style=&quot;font-size: 25px;&quot;&gt;us-east-1b&lt;/font&gt;" style="text;html=1;align=center;verticalAlign=middle;whiteSpace=wrap;rounded=0;" vertex="1" parent="1">
          <mxGeometry x="910" y="-760" width="150" height="60" as="geometry" />
        </mxCell>
        <mxCell id="jVZE8pouHpdLrU7AATkR-13" value="&lt;font style=&quot;font-size: 25px;&quot;&gt;Private&lt;/font&gt;" style="text;html=1;align=center;verticalAlign=middle;whiteSpace=wrap;rounded=0;" vertex="1" parent="1">
          <mxGeometry x="120" y="-635" width="150" height="60" as="geometry" />
        </mxCell>
        <mxCell id="jVZE8pouHpdLrU7AATkR-14" value="&lt;font style=&quot;font-size: 25px;&quot;&gt;Private&lt;/font&gt;" style="text;html=1;align=center;verticalAlign=middle;whiteSpace=wrap;rounded=0;" vertex="1" parent="1">
          <mxGeometry x="660" y="-635" width="150" height="60" as="geometry" />
        </mxCell>
        <mxCell id="jVZE8pouHpdLrU7AATkR-15" value="&lt;font style=&quot;font-size: 25px;&quot;&gt;Public&lt;/font&gt;" style="text;html=1;align=center;verticalAlign=middle;whiteSpace=wrap;rounded=0;" vertex="1" parent="1">
          <mxGeometry x="120" y="-355" width="150" height="60" as="geometry" />
        </mxCell>
        <mxCell id="jVZE8pouHpdLrU7AATkR-16" value="&lt;font style=&quot;font-size: 25px;&quot;&gt;Public&lt;/font&gt;" style="text;html=1;align=center;verticalAlign=middle;whiteSpace=wrap;rounded=0;" vertex="1" parent="1">
          <mxGeometry x="660" y="-355" width="150" height="60" as="geometry" />
        </mxCell>
      </root>
    </mxGraphModel>
  </diagram>
</mxfile>
